<svg width="88" height="72" viewBox="0 0 88 72" fill="none" xmlns="http://www.w3.org/2000/svg">
<g clip-path="url(#clip0_627_2494)">
<path d="M14.2588 7.16663H25.667C27.1994 7.1668 28.4255 8.393 28.4258 9.92542C28.4258 13.7798 29.0063 17.5192 30.0859 21.0338L30.3086 21.734C30.611 22.688 30.388 23.7754 29.6318 24.5319L29.6309 24.5328L22.4609 31.7194L22.2041 31.9762L22.3691 32.3004C27.1265 41.6175 34.7326 49.2386 44.0674 53.9801L44.3906 54.1451L44.6475 53.8883L51.8164 46.7008L51.8174 46.7018C52.5737 45.9455 53.6613 45.7218 54.6152 46.024V46.025C58.3315 47.2473 62.2957 47.9078 66.4072 47.9078C67.94 47.9078 69.167 49.1339 69.167 50.6666V62.0739C69.167 63.6066 67.94 64.8336 66.4072 64.8336C36.079 64.8335 11.5 40.2537 11.5 9.92542C11.5003 8.39304 12.7264 7.16688 14.2588 7.16663Z" fill="white" stroke="white"/>
<path d="M66.1299 11.1582C66.2932 11.1582 66.4545 11.1881 66.6035 11.2451C66.7524 11.3021 66.885 11.3847 66.9951 11.4863C67.105 11.5878 67.1899 11.7059 67.2471 11.833C67.3042 11.9602 67.333 12.0955 67.333 12.2305C67.333 12.3654 67.3041 12.4998 67.2471 12.627C67.1899 12.7543 67.1052 12.873 66.9951 12.9746L49.4746 29.1484L48.5342 30.0156H62.7256C63.0566 30.0157 63.3669 30.1371 63.5898 30.3428C63.8115 30.5474 63.9277 30.8163 63.9277 31.0869C63.9277 31.3575 63.8114 31.6255 63.5898 31.8301C63.3669 32.0359 63.0567 32.1582 62.7256 32.1582H45.7021C45.371 32.1582 45.0608 32.0359 44.8379 31.8301C44.6164 31.6255 44.5 31.3575 44.5 31.0869V15.373C44.5 15.1025 44.6164 14.8344 44.8379 14.6299C45.0608 14.4241 45.371 14.3018 45.7021 14.3018C46.0333 14.3018 46.3434 14.4241 46.5664 14.6299C46.788 14.8344 46.9043 15.1024 46.9043 15.373V28.4336L47.7441 27.6592L65.2646 11.4863C65.3748 11.3847 65.5083 11.3021 65.6572 11.2451C65.8061 11.1882 65.9667 11.1582 66.1299 11.1582Z" fill="white" stroke="white"/>
</g>
<defs>
<clipPath id="clip0_627_2494">
<rect width="88" height="72" fill="white"/>
</clipPath>
</defs>
</svg>
