<svg width="2791" height="2771" viewBox="0 0 2791 2771" fill="none" xmlns="http://www.w3.org/2000/svg">
<path d="M1395.5 29C2153.16 29 2767 637.648 2767 1388C2767 2138.35 2153.16 2747 1395.5 2747C637.837 2747 24 2138.35 24 1388C24 637.648 637.837 29 1395.5 29Z" stroke="#0B0158" stroke-width="48"/>
<circle cx="1391" cy="1396" r="1234" stroke="#2A3C84" stroke-width="240"/>
<path d="M1362.21 264.932C1363.77 267.611 1367.66 267.572 1369.16 264.862L1507.94 15.3977C1509.36 12.8356 1507.64 9.66156 1504.71 9.46237L1366.1 0.0236816C1365.87 0.00793457 1365.63 0.0123596 1365.4 0.0368958L1223.14 15.1711C1220.26 15.478 1218.65 18.6571 1220.11 21.1631L1362.21 264.932Z" fill="#FACC94"/>
<circle cx="731.5" cy="303.5" r="43.5" fill="#F1E57C"/>
<circle cx="277.5" cy="761.5" r="43.5" fill="#F1E57C"/>
<circle cx="2027.5" cy="303.5" r="43.5" fill="#F1E57C"/>
<circle cx="2492.5" cy="762.5" r="43.5" fill="#F1E57C"/>
<circle cx="2666.5" cy="1377.5" r="43.5" fill="#F1E57C"/>
<circle cx="106.5" cy="1377.5" r="43.5" fill="#F1E57C"/>
<circle cx="277.5" cy="2005.5" r="43.5" fill="#F1E57C"/>
<circle cx="741.5" cy="2453.5" r="43.5" fill="#F1E57C"/>
<circle cx="1390.5" cy="2649.5" r="43.5" fill="#F1E57C"/>
<circle cx="2034.5" cy="2453.5" r="43.5" fill="#F1E57C"/>
<circle cx="2492.5" cy="2005.5" r="43.5" fill="#F1E57C"/>
</svg>
