<svg width="14" height="14" viewBox="0 0 14 14" fill="none" xmlns="http://www.w3.org/2000/svg">
<path d="M2.71567 1.37233C2.57567 1.40966 2.42634 1.48433 2.26767 1.59633C2.15567 1.68033 2.06467 1.77133 1.99467 1.86933C1.92467 1.96733 1.86634 2.08633 1.81967 2.22633C1.79167 2.31033 1.77534 2.40599 1.77067 2.51333C1.76601 2.62066 1.76367 2.95433 1.76367 3.51433V4.63433L1.81967 4.80233C1.90367 5.01699 2.03434 5.20133 2.21167 5.35533C2.38901 5.50933 2.59434 5.60966 2.82767 5.65633C3.14501 5.73099 3.44834 5.67499 3.73767 5.48833C4.02701 5.30166 4.22301 5.04033 4.32567 4.70433C4.34434 4.63899 4.35601 4.54099 4.36067 4.41033C4.36534 4.27966 4.36767 3.97633 4.36767 3.50033C4.36767 3.02433 4.36534 2.72099 4.36067 2.59033C4.35601 2.45966 4.34434 2.36166 4.32567 2.29633C4.26034 2.08166 4.15301 1.89499 4.00367 1.73633C3.85434 1.57766 3.67234 1.46099 3.45767 1.38633C3.36434 1.34899 3.24067 1.33033 3.08667 1.33033C2.93267 1.33033 2.80901 1.34433 2.71567 1.37233ZM10.5977 1.35833C10.4203 1.41433 10.2547 1.50766 10.1007 1.63833C9.94667 1.76899 9.82767 1.91833 9.74367 2.08633L9.64567 2.29633V3.37433C9.63634 4.09299 9.64101 4.50366 9.65967 4.60633C9.69701 4.83966 9.79967 5.04966 9.96767 5.23633C10.1357 5.42299 10.341 5.55366 10.5837 5.62833C10.6957 5.66566 10.8333 5.67966 10.9967 5.67033C11.16 5.66099 11.2977 5.63299 11.4097 5.58633C11.5497 5.53033 11.6827 5.44633 11.8087 5.33433C11.9347 5.22233 12.0303 5.10099 12.0957 4.97033L12.1097 4.95633C12.1563 4.85366 12.1843 4.77899 12.1937 4.73233C12.2123 4.64833 12.2263 4.52699 12.2357 4.36833V3.51433C12.2357 3.01033 12.2333 2.69299 12.2287 2.56233C12.224 2.43166 12.2123 2.33366 12.1937 2.26833C12.1283 2.05366 12.0117 1.86466 11.8437 1.70133C11.6757 1.53799 11.4797 1.42833 11.2557 1.37233C11.1717 1.34433 11.0597 1.33033 10.9197 1.33033C10.7797 1.33033 10.6723 1.33966 10.5977 1.35833ZM3.23367 2.24033C3.28967 2.25899 3.34101 2.29399 3.38767 2.34533C3.43434 2.39666 3.46234 2.44333 3.47167 2.48533C3.48101 2.52733 3.48567 2.87499 3.48567 3.52833C3.48567 3.95766 3.48334 4.23066 3.47867 4.34733C3.47401 4.46399 3.46234 4.53633 3.44367 4.56433C3.37834 4.67633 3.28501 4.75099 3.16367 4.78833C3.04234 4.82566 2.93034 4.80699 2.82767 4.73233C2.77167 4.69499 2.72967 4.65299 2.70167 4.60633C2.67367 4.55966 2.65734 4.48733 2.65267 4.38933C2.64801 4.29133 2.64567 3.99499 2.64567 3.50033C2.64567 3.05233 2.64801 2.76766 2.65267 2.64633C2.65734 2.52499 2.66901 2.44566 2.68767 2.40833C2.73434 2.32433 2.81134 2.26366 2.91867 2.22633C3.02601 2.18899 3.13101 2.19366 3.23367 2.24033ZM11.1297 2.24033C11.1857 2.26833 11.2417 2.31499 11.2977 2.38033L11.3677 2.47833L11.3537 3.51433C11.3537 4.01833 11.3513 4.31933 11.3467 4.41733C11.342 4.51533 11.3257 4.57833 11.2977 4.60633C11.2043 4.74633 11.076 4.81166 10.9127 4.80233C10.7493 4.79299 10.6303 4.71366 10.5557 4.56433C10.537 4.53633 10.5253 4.46399 10.5207 4.34733C10.516 4.23066 10.5137 3.95766 10.5137 3.52833C10.5137 2.87499 10.5183 2.52966 10.5277 2.49233C10.5463 2.41766 10.6 2.34999 10.6887 2.28933C10.7773 2.22866 10.8637 2.19833 10.9477 2.19833C10.9943 2.19833 11.0503 2.21233 11.1157 2.24033H11.1297ZM5.89367 3.08033C5.70701 3.08966 5.59267 3.09666 5.55067 3.10133C5.50867 3.10599 5.46901 3.12233 5.43167 3.15033C5.33834 3.22499 5.28234 3.31833 5.26367 3.43033C5.24501 3.54233 5.26834 3.64266 5.33367 3.73133C5.39901 3.81999 5.46901 3.87599 5.54367 3.89933C5.61834 3.92266 5.79567 3.93433 6.07567 3.93433L6.55167 3.94833V10.0523L6.07567 10.0663C5.74901 10.0757 5.55767 10.0897 5.50167 10.1083C5.42701 10.1457 5.36401 10.2087 5.31267 10.2973C5.26134 10.386 5.24501 10.477 5.26367 10.5703C5.27301 10.6263 5.29867 10.6847 5.34067 10.7453C5.38267 10.806 5.42701 10.8503 5.47367 10.8783C5.52034 10.9063 5.61134 10.9227 5.74667 10.9273C5.88201 10.932 6.29967 10.9343 6.99967 10.9343C7.69967 10.9343 8.11734 10.932 8.25267 10.9273C8.38801 10.9227 8.47901 10.9063 8.52567 10.8783C8.57234 10.8503 8.61901 10.8037 8.66567 10.7383C8.69367 10.6917 8.71234 10.6543 8.72167 10.6263C8.73101 10.5983 8.73567 10.5563 8.73567 10.5003C8.73567 10.4443 8.73101 10.4 8.72167 10.3673C8.71234 10.3347 8.69367 10.2997 8.66567 10.2623C8.60967 10.1783 8.54434 10.127 8.46967 10.1083C8.39501 10.0897 8.21767 10.0757 7.93767 10.0663L7.44767 10.0523V3.94833L7.92367 3.93433C8.20367 3.93433 8.38334 3.92266 8.46267 3.89933C8.54201 3.87599 8.60967 3.82233 8.66567 3.73833C8.69367 3.69166 8.71234 3.65433 8.72167 3.62633C8.73101 3.59833 8.73567 3.55633 8.73567 3.50033C8.73567 3.44433 8.73101 3.40233 8.72167 3.37433C8.71234 3.34633 8.69367 3.30899 8.66567 3.26233L8.65167 3.24833C8.61434 3.19233 8.57234 3.15266 8.52567 3.12933C8.47901 3.10599 8.37634 3.09433 8.21767 3.09433C8.10567 3.08499 7.84434 3.08033 7.43367 3.08033H7.34967C6.62167 3.07099 6.13634 3.07099 5.89367 3.08033ZM2.72967 8.35833C2.55234 8.41433 2.38901 8.50066 2.23967 8.61733C2.09034 8.73399 1.97834 8.87166 1.90367 9.03033L1.88967 9.04433C1.84301 9.13766 1.81501 9.21233 1.80567 9.26833C1.78701 9.34299 1.77301 9.46433 1.76367 9.63233V10.4443V11.3683C1.77301 11.5363 1.78701 11.6577 1.80567 11.7323C1.81501 11.7883 1.84301 11.863 1.88967 11.9563L1.90367 11.9703C1.96901 12.101 2.06467 12.2223 2.19067 12.3343C2.31667 12.4463 2.44967 12.535 2.58967 12.6003C2.69234 12.6377 2.82534 12.661 2.98867 12.6703C3.15201 12.6797 3.28967 12.6703 3.40167 12.6423C3.64434 12.5677 3.85434 12.4347 4.03167 12.2433C4.20901 12.052 4.31167 11.835 4.33967 11.5923C4.35834 11.4803 4.36767 11.1163 4.36767 10.5003C4.36767 9.88433 4.35834 9.52033 4.33967 9.40833C4.31167 9.16566 4.20667 8.94633 4.02467 8.75033C3.84267 8.55433 3.63034 8.42366 3.38767 8.35833C3.31301 8.33966 3.20334 8.33033 3.05867 8.33033C2.91401 8.33033 2.80434 8.33966 2.72967 8.35833ZM10.5977 8.35833C10.4203 8.41433 10.2547 8.50766 10.1007 8.63833C9.94667 8.76899 9.82767 8.91833 9.74367 9.08633L9.64567 9.29633V10.3743C9.63634 11.093 9.64101 11.5037 9.65967 11.6063C9.69701 11.8397 9.79967 12.0497 9.96767 12.2363C10.1357 12.423 10.341 12.5537 10.5837 12.6283C10.6957 12.6657 10.8333 12.6797 10.9967 12.6703C11.16 12.661 11.2977 12.633 11.4097 12.5863C11.5497 12.5303 11.6827 12.4463 11.8087 12.3343C11.9347 12.2223 12.0303 12.101 12.0957 11.9703L12.1097 11.9563C12.1563 11.8537 12.1843 11.779 12.1937 11.7323C12.2123 11.6483 12.2263 11.527 12.2357 11.3683V10.5143C12.2357 10.0103 12.2333 9.69299 12.2287 9.56233C12.224 9.43166 12.2123 9.33833 12.1937 9.28233C12.1283 9.05833 12.0117 8.86466 11.8437 8.70133C11.6757 8.53799 11.4797 8.42833 11.2557 8.37233C11.1717 8.34433 11.0597 8.33033 10.9197 8.33033C10.7797 8.33033 10.6723 8.33966 10.5977 8.35833ZM3.17767 9.21233C3.23367 9.23099 3.28501 9.26133 3.33167 9.30333C3.37834 9.34533 3.41334 9.38499 3.43667 9.42233C3.46001 9.45966 3.47401 9.53666 3.47867 9.65333C3.48334 9.76999 3.48567 10.05 3.48567 10.4933C3.48567 10.9367 3.48334 11.2167 3.47867 11.3333C3.47401 11.45 3.46234 11.527 3.44367 11.5643C3.37834 11.6763 3.28501 11.751 3.16367 11.7883C3.04234 11.8257 2.93034 11.807 2.82767 11.7323C2.77167 11.695 2.72967 11.6577 2.70167 11.6203C2.67367 11.583 2.65734 11.5153 2.65267 11.4173C2.64801 11.3193 2.64334 11.0183 2.63867 10.5143C2.63401 10.0103 2.63401 9.71166 2.63867 9.61833C2.64334 9.52499 2.65967 9.45499 2.68767 9.40833C2.79967 9.22166 2.96301 9.15633 3.17767 9.21233ZM11.1297 9.24033C11.1857 9.26833 11.2417 9.31499 11.2977 9.38033L11.3677 9.47833L11.3537 10.5143C11.3537 11.0183 11.3513 11.3193 11.3467 11.4173C11.342 11.5153 11.3257 11.5783 11.2977 11.6063C11.2043 11.7463 11.076 11.8117 10.9127 11.8023C10.7493 11.793 10.6303 11.7137 10.5557 11.5643C10.537 11.5363 10.5253 11.464 10.5207 11.3473C10.516 11.2307 10.5137 10.9577 10.5137 10.5283C10.5137 9.87499 10.5183 9.52966 10.5277 9.49233C10.5463 9.41766 10.6 9.34999 10.6887 9.28933C10.7773 9.22866 10.8637 9.19833 10.9477 9.19833C10.9943 9.19833 11.0503 9.21233 11.1157 9.24033H11.1297Z" fill="#282624" fill-opacity="0.6"/>
</svg>
