<svg width="14" height="14" viewBox="0 0 14 14" fill="none" xmlns="http://www.w3.org/2000/svg">
<path d="M6.83124 1.77833C6.77524 1.797 6.73091 1.81566 6.69824 1.83433C6.66558 1.853 6.61658 1.895 6.55124 1.96033C6.43924 2.063 6.37391 2.18666 6.35524 2.33133C6.33658 2.476 6.36458 2.61133 6.43924 2.73733C6.51391 2.86333 6.62824 2.95433 6.78224 3.01033C6.93624 3.06633 7.08791 3.064 7.23724 3.00333C7.38658 2.94266 7.49858 2.84 7.57324 2.69533C7.64791 2.55066 7.66191 2.39433 7.61524 2.22633C7.59658 2.14233 7.55924 2.06766 7.50324 2.00233C7.43791 1.909 7.33758 1.84133 7.20224 1.79933C7.06691 1.75733 6.94324 1.75033 6.83124 1.77833ZM11.2412 1.76433C11.0266 1.82033 10.8749 1.94633 10.7862 2.14233C10.6976 2.33833 10.7046 2.53433 10.8072 2.73033C10.8632 2.82366 10.9449 2.90066 11.0522 2.96133C11.1596 3.022 11.2669 3.05233 11.3742 3.05233C11.4816 3.05233 11.5912 3.01733 11.7032 2.94733C11.8152 2.87733 11.8992 2.79566 11.9552 2.70233C11.9926 2.62766 12.0112 2.52733 12.0112 2.40133C12.0112 2.27533 11.9926 2.17966 11.9552 2.11433C11.8899 1.993 11.7849 1.89733 11.6402 1.82733C11.4956 1.75733 11.3626 1.741 11.2412 1.77833V1.76433ZM2.36524 1.80633C2.31858 1.825 2.26724 1.86 2.21124 1.91133C2.15524 1.96266 2.11091 2.00933 2.07824 2.05133C2.04558 2.09333 2.01524 2.16566 1.98724 2.26833C1.96858 2.33366 1.96158 2.38033 1.96624 2.40833C1.97091 2.43633 1.97791 2.48766 1.98724 2.56233C2.05258 2.78633 2.19024 2.938 2.40024 3.01733C2.61024 3.09666 2.81324 3.06633 3.00924 2.92633C3.13058 2.84233 3.21458 2.71633 3.26124 2.54833C3.27058 2.483 3.27524 2.434 3.27524 2.40133C3.27524 2.36866 3.27058 2.31966 3.26124 2.25433C3.23324 2.161 3.20291 2.091 3.17024 2.04433C3.13758 1.99766 3.08858 1.94866 3.02324 1.89733C2.95791 1.846 2.89724 1.81333 2.84124 1.79933C2.78524 1.78533 2.70358 1.77833 2.59624 1.77833C2.48891 1.77833 2.41191 1.78766 2.36524 1.80633ZM2.50524 4.10233C2.46791 4.11166 2.41191 4.149 2.33724 4.21433C2.29991 4.25166 2.27191 4.28433 2.25324 4.31233C2.23458 4.34033 2.22058 4.38233 2.21124 4.43833C2.20191 4.52233 2.19724 5.40433 2.19724 7.08433L2.21124 9.08633C2.21124 9.37566 2.22058 9.56233 2.23924 9.64633C2.25791 9.70233 2.29058 9.74899 2.33724 9.78633L2.36524 9.81433C2.46791 9.90766 2.59391 9.93566 2.74324 9.89833C2.79924 9.87966 2.85758 9.83999 2.91824 9.77933C2.97891 9.71866 3.01624 9.65799 3.03024 9.59733C3.04424 9.53666 3.05124 9.16099 3.05124 8.47033V7.44833H6.55124L6.57924 9.33833C6.57924 9.50633 6.58858 9.61366 6.60724 9.66033C6.62591 9.70699 6.66324 9.75366 6.71924 9.80033C6.79391 9.86566 6.87791 9.90066 6.97124 9.90533C7.06458 9.90999 7.15324 9.88433 7.23724 9.82833H7.25124C7.31658 9.78166 7.36091 9.73266 7.38424 9.68133C7.40758 9.62999 7.41924 9.52499 7.41924 9.36633C7.42858 9.25433 7.43324 8.98833 7.43324 8.56833L7.44724 7.44833L9.85524 7.43433C10.4992 7.43433 10.9052 7.43433 11.0732 7.43433C11.3159 7.42499 11.4746 7.41099 11.5492 7.39233C11.6052 7.37366 11.6566 7.33633 11.7032 7.28033L11.8012 7.14033V5.82433C11.8012 4.93766 11.7942 4.46633 11.7802 4.41033C11.7662 4.35433 11.7382 4.30066 11.6962 4.24933C11.6542 4.198 11.6122 4.16066 11.5702 4.13733C11.5282 4.114 11.4629 4.10233 11.3742 4.10233C11.2856 4.10233 11.2202 4.114 11.1782 4.13733C11.1362 4.16066 11.0942 4.198 11.0522 4.24933C11.0102 4.30066 10.9822 4.35433 10.9682 4.41033C10.9542 4.46633 10.9472 4.83966 10.9472 5.53033V6.55233H7.44724L7.43324 5.48833C7.43324 5.04966 7.42858 4.76966 7.41924 4.64833C7.41924 4.48966 7.40991 4.38466 7.39124 4.33333C7.37258 4.282 7.33524 4.23766 7.27924 4.20033C7.14858 4.09766 7.02258 4.065 6.90124 4.10233C6.83591 4.121 6.77524 4.15366 6.71924 4.20033C6.66324 4.23766 6.62591 4.27966 6.60724 4.32633C6.58858 4.373 6.57924 4.48033 6.57924 4.64833C6.56991 4.76966 6.56524 5.045 6.56524 5.47433L6.55124 6.55233H3.05124V5.53033C3.05124 4.83966 3.04191 4.46166 3.02324 4.39633C2.99524 4.29366 2.92991 4.212 2.82724 4.15133C2.72458 4.09066 2.61724 4.07433 2.50524 4.10233ZM2.42124 10.9763C2.34658 11.0043 2.26724 11.058 2.18324 11.1373C2.09924 11.2167 2.04324 11.289 2.01524 11.3543C1.98724 11.4197 1.97791 11.5083 1.98724 11.6203C1.99658 11.7323 2.01524 11.821 2.04324 11.8863C2.07124 11.9517 2.12024 12.0147 2.19024 12.0753C2.26024 12.136 2.32558 12.178 2.38624 12.2013C2.44691 12.2247 2.52858 12.2363 2.63124 12.2363C2.73391 12.2363 2.82724 12.2177 2.91124 12.1803C3.05124 12.0963 3.15158 11.982 3.21224 11.8373C3.27291 11.6927 3.27991 11.541 3.23324 11.3823C3.18658 11.2237 3.07924 11.1047 2.91124 11.0253C2.74324 10.946 2.57991 10.9297 2.42124 10.9763ZM6.81724 10.9623C6.69591 11.009 6.59091 11.0837 6.50224 11.1863C6.41358 11.289 6.36458 11.4057 6.35524 11.5363C6.34591 11.667 6.37391 11.793 6.43924 11.9143C6.50458 12.0357 6.59791 12.1243 6.71924 12.1803C6.78458 12.2177 6.87791 12.2363 6.99924 12.2363C7.12058 12.2363 7.21391 12.2177 7.27924 12.1803C7.40058 12.1243 7.49391 12.0357 7.55924 11.9143C7.62458 11.793 7.65258 11.6717 7.64324 11.5503C7.63391 11.457 7.61758 11.3847 7.59424 11.3333C7.57091 11.282 7.52658 11.2237 7.46124 11.1583C7.39591 11.093 7.33524 11.044 7.27924 11.0113C7.22324 10.9787 7.14624 10.96 7.04824 10.9553C6.95024 10.9507 6.87324 10.953 6.81724 10.9623Z" fill="#282624" fill-opacity="0.6"/>
</svg>
