<svg width="14" height="14" viewBox="0 0 14 14" fill="none" xmlns="http://www.w3.org/2000/svg">
<path d="M4.788 1.764C4.66667 1.78267 4.578 1.81533 4.522 1.862C4.466 1.90867 4.42167 1.99033 4.389 2.107C4.35633 2.22367 4.38667 2.34267 4.48 2.464C4.536 2.52 4.58267 2.55733 4.62 2.576C4.65733 2.59467 4.732 2.60867 4.844 2.618C4.928 2.62733 5.11467 2.632 5.404 2.632L6.118 2.646V3.486L2.408 3.514L2.282 3.584C2.07667 3.67733 1.92733 3.822 1.834 4.018L1.75 4.186V7.448H0.896L0.882 6.748C0.882 6.468 0.877333 6.27667 0.868 6.174C0.858667 6.05267 0.842333 5.96867 0.819 5.922C0.795667 5.87533 0.756 5.82867 0.7 5.782C0.616 5.726 0.525 5.698 0.427 5.698C0.329 5.698 0.242667 5.73533 0.168 5.81L0.14 5.824C0.0933333 5.86133 0.063 5.91033 0.049 5.971C0.035 6.03167 0.0233333 6.16933 0.014 6.384L0 7.798C0 9.002 0.00933333 9.646 0.028 9.73C0.0653333 9.898 0.168 10.0007 0.336 10.038C0.42 10.0567 0.49 10.059 0.546 10.045C0.602 10.031 0.660333 9.996 0.721 9.94C0.781667 9.884 0.821333 9.828 0.84 9.772C0.858667 9.716 0.872667 9.45933 0.882 9.002L0.896 8.302H1.75V8.89C1.75 9.198 1.757 9.41267 1.771 9.534C1.785 9.65533 1.80833 9.75333 1.841 9.828C1.87367 9.90267 2.24233 10.2947 2.947 11.004C3.65167 11.7133 4.04367 12.0913 4.123 12.138C4.20233 12.1847 4.30733 12.215 4.438 12.229C4.56867 12.243 5.24533 12.25 6.468 12.25H8.316L8.456 12.18C8.54933 12.1427 8.69167 12.0353 8.883 11.858C9.07433 11.6807 9.41733 11.34 9.912 10.836L10.696 10.052H11.088C11.312 10.052 11.4753 10.0427 11.578 10.024C11.6807 10.0053 11.7787 9.96333 11.872 9.898C11.9933 9.814 12.096 9.688 12.18 9.52C12.208 9.45467 12.2243 9.394 12.229 9.338C12.2337 9.282 12.2407 9.11867 12.25 8.848V8.302H13.104L13.118 9.016C13.118 9.352 13.1227 9.55733 13.132 9.632C13.1413 9.70667 13.1553 9.76733 13.174 9.814C13.23 9.91667 13.307 9.98667 13.405 10.024C13.503 10.0613 13.6033 10.0613 13.706 10.024C13.762 10.0053 13.8157 9.968 13.867 9.912C13.9183 9.856 13.951 9.807 13.965 9.765C13.979 9.723 13.986 9.093 13.986 7.875C13.986 6.657 13.979 6.027 13.965 5.985C13.951 5.943 13.9183 5.894 13.867 5.838C13.8157 5.782 13.762 5.74467 13.706 5.726C13.6033 5.68867 13.4983 5.691 13.391 5.733C13.2837 5.775 13.2113 5.84733 13.174 5.95C13.1553 5.99667 13.1413 6.06433 13.132 6.153C13.1227 6.24167 13.118 6.44 13.118 6.748L13.104 7.448H12.25L12.236 6.356L12.166 6.202C12.0353 5.922 11.8253 5.75867 11.536 5.712C11.4427 5.70267 11.2793 5.698 11.046 5.698H10.682L9.674 4.676C9.24467 4.24667 8.96 3.96667 8.82 3.836C8.68 3.70533 8.57733 3.626 8.512 3.598L8.372 3.514L7 3.5V2.646L7.7 2.632C8.036 2.632 8.239 2.62733 8.309 2.618C8.379 2.60867 8.442 2.59467 8.498 2.576C8.61 2.52 8.68467 2.436 8.722 2.324C8.75933 2.212 8.75 2.10467 8.694 2.002C8.65667 1.93667 8.60533 1.88067 8.54 1.834L8.442 1.764H6.692C5.516 1.75467 4.88133 1.75467 4.788 1.764ZM8.806 5.068C9.702 5.964 10.2107 6.44 10.332 6.496C10.3787 6.51467 10.4347 6.52867 10.5 6.538C10.5653 6.54733 10.7007 6.552 10.906 6.552L11.368 6.566V9.184L10.906 9.198C10.682 9.20733 10.542 9.21433 10.486 9.219C10.43 9.22367 10.374 9.24 10.318 9.268C10.178 9.34267 9.67867 9.80933 8.82 10.668L8.106 11.382H4.564L2.632 9.464V4.382H8.134L8.806 5.068Z" fill="#282624" fill-opacity="0.6"/>
</svg>
