<svg width="20" height="20" viewBox="0 0 20 20" fill="none" xmlns="http://www.w3.org/2000/svg">
<g clip-path="url(#clip0_161_81)">
<path d="M2.05632 6.0189C1.68356 5.89886 1.46167 5.81605 1.14438 5.55851C-0.0353819 4.61959 -0.00729479 2.71311 1.16725 1.78244C1.5966 1.44223 2.02553 1.29867 2.56512 1.24406C2.97073 1.20475 3.59821 1.3711 3.93958 1.5871C5.77985 2.75152 5.44833 5.49827 3.27407 6.0189C3.27378 6.02601 3.27349 6.03316 3.2732 6.0403L3.27373 9.29242C3.27363 10.2313 3.44423 10.4277 4.38907 10.4333L8.06685 10.4335C8.50197 10.4336 8.96744 10.4243 9.39932 10.4335C9.41174 10.2232 9.39955 9.86074 9.39947 9.63738L9.39916 8.00589C9.39885 7.47523 9.40951 6.94495 9.40178 6.41585C9.39685 6.07702 9.49826 6.058 9.2217 5.973C7.69447 5.50362 7.07244 3.72506 7.94076 2.37675C8.76838 1.09272 10.5808 0.865551 11.6883 1.93537C13.0493 3.25 12.4844 5.6144 10.5949 6.0189L10.5952 9.92117C10.5956 10.0816 10.6031 10.2761 10.5949 10.4335C10.686 10.4312 10.7805 10.433 10.8719 10.4332L15.6302 10.4341C16.5211 10.4349 16.7083 10.3522 16.7086 9.44109L16.7084 6.0189C15.1219 5.60304 14.3411 3.85932 15.178 2.44138C16.2811 0.572327 19.1286 0.9793 19.6614 3.13137C19.9824 4.40163 19.2173 5.70421 17.9384 6.0189L17.9387 9.11141C17.9384 10.1255 17.8934 10.9429 16.839 11.4588C16.3659 11.6598 16.0246 11.6237 15.5251 11.6231L10.5949 11.6227C10.5821 12.067 10.5947 12.5839 10.5948 13.0326L10.5949 15.9782C10.7444 16.043 10.8962 16.0832 11.0524 16.1525C12.2483 16.6829 12.7572 18.1707 12.2157 19.3446C11.305 21.3518 8.41431 21.1716 7.68802 19.1056C7.27736 17.9374 7.83888 16.6477 8.96307 16.1402C9.10701 16.0752 9.25158 16.0315 9.39932 15.9782C9.38467 15.1798 9.39932 14.3314 9.39939 13.5295L9.39935 12.2663C9.39924 12.0538 9.39295 11.834 9.39932 11.6227L4.4979 11.6224C3.60661 11.6217 3.26897 11.627 3.27333 12.6231L3.27401 15.0582C3.27404 15.3437 3.28563 15.6992 3.27407 15.9782C4.05872 16.1123 4.73345 16.7598 5.00661 17.4889C5.48021 18.7531 4.82806 20.1479 3.55899 20.6101C1.88173 21.2315 0.0550714 19.8708 0.285369 18.0516C0.418913 16.9967 1.13427 16.325 2.08426 15.9782C2.07037 15.2136 2.0852 14.4038 2.08524 13.6361L2.08407 12.7711C2.08235 11.9913 2.06262 11.6118 2.61953 10.9881C2.08474 10.449 2.05548 9.97231 2.05611 9.2648L2.05632 6.0189ZM9.916 2.43898C9.22959 2.48676 8.71306 3.08386 8.76463 3.77C8.81615 4.45614 9.41607 4.96936 10.1019 4.91405C10.7825 4.8592 11.2909 4.26491 11.2397 3.58407C11.1886 2.90323 10.5971 2.39157 9.916 2.43898ZM17.2577 2.45555C16.5815 2.47754 16.0513 3.0436 16.0735 3.71974C16.0957 4.39587 16.6619 4.92593 17.338 4.90356C18.0139 4.88118 18.5437 4.31525 18.5215 3.63939C18.4993 2.96353 17.9335 2.43356 17.2577 2.45555ZM2.55279 2.4598C1.87563 2.53941 1.39163 3.15347 1.47241 3.83048C1.55319 4.5075 2.1681 4.99042 2.84497 4.90847C3.52018 4.82671 4.00165 4.21365 3.9211 3.5383C3.8405 2.86295 3.22828 2.3804 2.55279 2.4598ZM2.65054 17.1053C1.97419 17.134 1.44865 17.7046 1.4756 18.381C1.50255 19.0575 2.07184 19.5845 2.74833 19.5593C3.42731 19.534 3.95673 18.9622 3.92966 18.2833C3.9026 17.6044 3.32938 17.0764 2.65054 17.1053ZM9.88397 17.1072C9.20572 17.174 8.70963 17.7772 8.7751 18.4556C8.84056 19.1339 9.44287 19.6312 10.1213 19.5671C10.8017 19.5028 11.3007 18.8984 11.235 18.2182C11.1694 17.5379 10.564 17.0402 9.88397 17.1072Z" fill="white"/>
</g>
<defs>
<clipPath id="clip0_161_81">
<rect width="20" height="20" fill="white"/>
</clipPath>
</defs>
</svg>
