<svg width="20" height="20" viewBox="0 0 20 20" fill="none" xmlns="http://www.w3.org/2000/svg">
<path d="M18.75 9.125H17.7586L15 6.36641C14.8843 6.24983 14.7467 6.1574 14.595 6.0945C14.4433 6.0316 14.2806 5.99948 14.1164 6H10.9375V4.125H12.8125C12.9783 4.125 13.1372 4.05915 13.2544 3.94194C13.3717 3.82473 13.4375 3.66576 13.4375 3.5C13.4375 3.33424 13.3717 3.17527 13.2544 3.05806C13.1372 2.94085 12.9783 2.875 12.8125 2.875H7.8125C7.64674 2.875 7.48777 2.94085 7.37056 3.05806C7.25335 3.17527 7.1875 3.33424 7.1875 3.5C7.1875 3.66576 7.25335 3.82473 7.37056 3.94194C7.48777 4.05915 7.64674 4.125 7.8125 4.125H9.6875V6H5C4.66848 6 4.35054 6.1317 4.11612 6.36612C3.8817 6.60054 3.75 6.91848 3.75 7.25V11.3125H1.875V9.4375C1.875 9.27174 1.80915 9.11277 1.69194 8.99556C1.57473 8.87835 1.41576 8.8125 1.25 8.8125C1.08424 8.8125 0.925268 8.87835 0.808058 8.99556C0.690848 9.11277 0.625 9.27174 0.625 9.4375V14.4375C0.625 14.6033 0.690848 14.7622 0.808058 14.8794C0.925268 14.9967 1.08424 15.0625 1.25 15.0625C1.41576 15.0625 1.57473 14.9967 1.69194 14.8794C1.80915 14.7622 1.875 14.6033 1.875 14.4375V12.5625H3.75V14.1789C3.74948 14.3431 3.7816 14.5058 3.8445 14.6575C3.9074 14.8092 3.99983 14.9468 4.11641 15.0625L7.1875 18.1336C7.30315 18.2502 7.44082 18.3426 7.59251 18.4055C7.7442 18.4684 7.90688 18.5005 8.07109 18.5H14.1164C14.2806 18.5005 14.4433 18.4684 14.595 18.4055C14.7467 18.3426 14.8843 18.2502 15 18.1336L17.7586 15.375H18.75C19.0815 15.375 19.3995 15.2433 19.6339 15.0089C19.8683 14.7745 20 14.4565 20 14.125V10.375C20 10.0435 19.8683 9.72554 19.6339 9.49112C19.3995 9.2567 19.0815 9.125 18.75 9.125ZM18.75 14.125H17.5C17.4179 14.1249 17.3366 14.141 17.2607 14.1724C17.1848 14.2038 17.1159 14.2498 17.0578 14.3078L14.1164 17.25H8.07109L5 14.1789V7.25H14.1164L17.0578 10.1922C17.1159 10.2502 17.1848 10.2962 17.2607 10.3276C17.3366 10.359 17.4179 10.3751 17.5 10.375H18.75V14.125Z" fill="white"/>
</svg>
