<svg width="20" height="20" viewBox="0 0 20 20" fill="none" xmlns="http://www.w3.org/2000/svg">
<path d="M9.9993 7.2493C9.25762 7.2493 8.5326 7.46924 7.91591 7.88129C7.29923 8.29335 6.81858 8.87902 6.53476 9.56424C6.25093 10.2495 6.17666 11.0035 6.32136 11.7309C6.46605 12.4583 6.82321 13.1265 7.34765 13.651C7.8721 14.1754 8.54029 14.5326 9.26771 14.6772C9.99514 14.8219 10.7491 14.7477 11.4344 14.4639C12.1196 14.18 12.7053 13.6994 13.1173 13.0827C13.5294 12.466 13.7493 11.741 13.7493 10.9993C13.7483 10.0051 13.3528 9.05183 12.6498 8.3488C11.9468 7.64576 10.9935 7.25034 9.9993 7.2493ZM9.9993 13.4993C9.50485 13.4993 9.0215 13.3527 8.61038 13.078C8.19926 12.8033 7.87882 12.4128 7.6896 11.956C7.50039 11.4992 7.45088 10.9965 7.54734 10.5116C7.6438 10.0266 7.8819 9.58117 8.23154 9.23154C8.58117 8.8819 9.02663 8.6438 9.51158 8.54734C9.99653 8.45088 10.4992 8.50039 10.956 8.6896C11.4128 8.87882 11.8033 9.19926 12.078 9.61038C12.3527 10.0215 12.4993 10.5049 12.4993 10.9993C12.4993 11.6623 12.2359 12.2982 11.7671 12.7671C11.2982 13.2359 10.6623 13.4993 9.9993 13.4993ZM16.8743 11.1681C16.8774 11.0556 16.8774 10.9431 16.8743 10.8306L18.0399 9.3743C18.101 9.29784 18.1434 9.2081 18.1634 9.11229C18.1835 9.01649 18.1808 8.91731 18.1556 8.82274C17.9645 8.10446 17.6786 7.41481 17.3056 6.77196C17.2567 6.68783 17.1889 6.61627 17.1075 6.56297C17.0261 6.50967 16.9334 6.47609 16.8368 6.46493L14.9837 6.25868C14.9066 6.17743 14.8285 6.0993 14.7493 6.0243L14.5306 4.16649C14.5193 4.06978 14.4856 3.97704 14.4322 3.89566C14.3787 3.81427 14.307 3.7465 14.2227 3.69774C13.5796 3.32536 12.8901 3.0398 12.172 2.84852C12.0773 2.82336 11.9781 2.82079 11.8823 2.84101C11.7865 2.86123 11.6968 2.90368 11.6204 2.96493L10.1681 4.1243C10.0556 4.1243 9.94305 4.1243 9.83055 4.1243L8.3743 2.96102C8.29784 2.8999 8.2081 2.8576 8.11229 2.83752C8.01649 2.81743 7.91731 2.82013 7.82274 2.8454C7.10458 3.03682 6.41497 3.32265 5.77196 3.6954C5.68783 3.74425 5.61627 3.81206 5.56297 3.89344C5.50967 3.97481 5.47609 4.06751 5.46493 4.16415L5.25868 6.0204C5.17743 6.098 5.0993 6.17613 5.0243 6.25477L3.16649 6.46805C3.06978 6.4793 2.97704 6.51299 2.89566 6.56644C2.81427 6.61988 2.7465 6.69159 2.69774 6.77587C2.32536 7.41896 2.0398 8.10855 1.84852 8.82665C1.82336 8.92128 1.82079 9.02049 1.84101 9.1163C1.86123 9.2121 1.90368 9.30182 1.96493 9.37821L3.1243 10.8306C3.1243 10.9431 3.1243 11.0556 3.1243 11.1681L1.96102 12.6243C1.8999 12.7008 1.8576 12.7905 1.83752 12.8863C1.81743 12.9821 1.82013 13.0813 1.8454 13.1759C2.03648 13.8941 2.32233 14.5838 2.6954 15.2266C2.74425 15.3108 2.81206 15.3823 2.89344 15.4356C2.97481 15.4889 3.06751 15.5225 3.16415 15.5337L5.01727 15.7399C5.09488 15.8212 5.173 15.8993 5.25165 15.9743L5.46805 17.8321C5.4793 17.9288 5.51299 18.0216 5.56644 18.103C5.61988 18.1843 5.69159 18.2521 5.77587 18.3009C6.41896 18.6733 7.10855 18.9588 7.82665 19.1501C7.92128 19.1752 8.02049 19.1778 8.1163 19.1576C8.2121 19.1374 8.30182 19.0949 8.37821 19.0337L9.83055 17.8743C9.94305 17.8774 10.0556 17.8774 10.1681 17.8743L11.6243 19.0399C11.7008 19.101 11.7905 19.1434 11.8863 19.1634C11.9821 19.1835 12.0813 19.1808 12.1759 19.1556C12.8941 18.9645 13.5838 18.6786 14.2266 18.3056C14.3108 18.2567 14.3823 18.1889 14.4356 18.1075C14.4889 18.0261 14.5225 17.9334 14.5337 17.8368L14.7399 15.9837C14.8212 15.9066 14.8993 15.8285 14.9743 15.7493L16.8321 15.5306C16.9288 15.5193 17.0216 15.4856 17.103 15.4322C17.1843 15.3787 17.2521 15.307 17.3009 15.2227C17.6733 14.5796 17.9588 13.8901 18.1501 13.172C18.1752 13.0773 18.1778 12.9781 18.1576 12.8823C18.1374 12.7865 18.0949 12.6968 18.0337 12.6204L16.8743 11.1681ZM15.6165 10.6602C15.6298 10.8861 15.6298 11.1125 15.6165 11.3384C15.6072 11.493 15.6556 11.6456 15.7524 11.7665L16.861 13.1516C16.7338 13.5559 16.5709 13.9481 16.3743 14.3235L14.6087 14.5235C14.4549 14.5406 14.3129 14.6141 14.2102 14.7298C14.0599 14.8989 13.8997 15.0591 13.7306 15.2095C13.6149 15.3122 13.5414 15.4541 13.5243 15.6079L13.3282 17.372C12.9528 17.5687 12.5606 17.7316 12.1563 17.8587L10.7704 16.7501C10.6595 16.6615 10.5217 16.6133 10.3798 16.6134H10.3423C10.1164 16.6266 9.88999 16.6266 9.66415 16.6134C9.50952 16.6041 9.35695 16.6525 9.23602 16.7493L7.84696 17.8587C7.44269 17.7315 7.05052 17.5686 6.67508 17.372L6.47508 15.6087C6.45802 15.4549 6.38453 15.3129 6.26883 15.2102C6.0997 15.0599 5.93953 14.8997 5.78915 14.7306C5.68644 14.6149 5.54447 14.5414 5.39071 14.5243L3.62665 14.3274C3.42992 13.952 3.26704 13.5599 3.13993 13.1556L4.24852 11.7696C4.34532 11.6487 4.39377 11.4961 4.38446 11.3415C4.37118 11.1156 4.37118 10.8892 4.38446 10.6634C4.39377 10.5087 4.34532 10.3562 4.24852 10.2352L3.13993 8.84696C3.26714 8.44269 3.43002 8.05052 3.62665 7.67508L5.38993 7.47508C5.54369 7.45802 5.68566 7.38453 5.78837 7.26883C5.93875 7.0997 6.09892 6.93953 6.26805 6.78915C6.38421 6.68637 6.458 6.54408 6.47508 6.38993L6.67118 4.62665C7.04657 4.42992 7.43875 4.26704 7.84305 4.13993L9.22899 5.24852C9.34992 5.34532 9.50249 5.39377 9.65712 5.38446C9.88296 5.37118 10.1094 5.37118 10.3352 5.38446C10.4899 5.39377 10.6424 5.34532 10.7634 5.24852L12.1516 4.13993C12.5559 4.26714 12.9481 4.43002 13.3235 4.62665L13.5235 6.38993C13.5406 6.54369 13.6141 6.68566 13.7298 6.78837C13.8989 6.93875 14.0591 7.09892 14.2095 7.26805C14.3122 7.38375 14.4541 7.45724 14.6079 7.4743L16.372 7.6704C16.5687 8.04579 16.7316 8.43797 16.8587 8.84227L15.7501 10.2282C15.6524 10.3502 15.6039 10.5043 15.6141 10.6602H15.6165Z" fill="white"/>
</svg>
