<svg width="20" height="20" viewBox="0 0 20 20" fill="none" xmlns="http://www.w3.org/2000/svg">
<path d="M18.1245 3.5C18.1245 3.33424 18.0586 3.17527 17.9414 3.05806C17.8242 2.94085 17.6652 2.875 17.4995 2.875C14.0557 2.875 10.5221 6.75859 8.55961 9.33047C7.85873 9.11582 7.11727 9.06853 6.3948 9.1924C5.67233 9.31628 4.98897 9.60786 4.39963 10.0437C3.81028 10.4796 3.33138 11.0476 3.00137 11.7022C2.67136 12.3567 2.49945 13.0795 2.49946 13.8125C2.49946 16.225 0.972895 17.307 0.900238 17.357C0.78937 17.4319 0.705449 17.5404 0.660814 17.6665C0.616179 17.7926 0.613187 17.9297 0.652277 18.0576C0.691367 18.1856 0.770477 18.2976 0.877973 18.3772C0.985469 18.4568 1.11568 18.4999 1.24946 18.5H7.18696C7.91997 18.5 8.64277 18.3281 9.2973 17.9981C9.95183 17.6681 10.5198 17.1892 10.9557 16.5998C11.3916 16.0105 11.6832 15.3271 11.8071 14.6047C11.9309 13.8822 11.8836 13.1407 11.669 12.4398C14.2416 10.4773 18.1245 6.94375 18.1245 3.5ZM7.18696 17.25H2.70493C3.23227 16.5008 3.74946 15.3688 3.74946 13.8125C3.74946 13.1326 3.95106 12.468 4.32878 11.9027C4.7065 11.3374 5.24336 10.8968 5.87148 10.6367C6.4996 10.3765 7.19077 10.3084 7.85758 10.4411C8.52439 10.5737 9.13689 10.9011 9.61764 11.3818C10.0984 11.8626 10.4258 12.4751 10.5584 13.1419C10.691 13.8087 10.623 14.4999 10.3628 15.128C10.1026 15.7561 9.66202 16.293 9.09673 16.6707C8.53144 17.0484 7.86683 17.25 7.18696 17.25ZM9.71977 9.87109C9.98748 9.52422 10.2502 9.1974 10.5081 8.89062C11.1391 9.31696 11.6825 9.86037 12.1088 10.4914C11.8015 10.7487 11.4747 11.0115 11.1284 11.2797C10.7642 10.7155 10.284 10.2353 9.71977 9.87109ZM13.0557 9.66172C12.5839 8.99594 12.0027 8.41481 11.337 7.94297C13.8198 5.24531 15.6924 4.42734 16.7979 4.2C16.5752 5.30625 15.7534 7.17891 13.0557 9.66172Z" fill="white"/>
</svg>
