<svg width="16" height="21" viewBox="0 0 16 21" fill="none" xmlns="http://www.w3.org/2000/svg">
<path d="M3.88576 3.81756L3.88773 3.8358C3.89355 3.89422 3.88721 4.05162 3.88687 4.11789L3.88547 4.69706C3.88532 5.21185 4.02189 6.12824 3.21437 6.13584C2.85066 6.13927 2.47358 6.12277 2.10463 6.12409C1.31726 6.13259 1.00325 5.9956 1.00447 5.13678L1.00516 2.0897C1.00393 1.47148 1.00168 1.07514 1.74499 1.01567L2.70051 1.01543C3.70964 1.01478 3.88692 1.05644 3.88633 2.18861L3.88576 3.19629C4.21913 3.22071 4.65975 3.20023 5.00224 3.19629C5.30646 2.11256 6.01739 1.96168 6.98481 1.96249L8.75223 1.96214C9.77473 1.96181 10.2825 2.22764 10.6121 3.19629C10.9711 3.20424 11.355 3.19481 11.717 3.19629L11.7168 2.30592C11.7168 1.8194 11.6575 1.16546 12.3016 1.04166C12.6571 0.973335 13.5482 1.00757 13.9248 1.0164C14.6647 1.05096 14.6288 1.73688 14.6241 2.25536L14.622 4.81376C14.6224 5.89395 14.6221 6.12463 13.4564 6.12339L12.6565 6.12381C11.7184 6.12414 11.7169 5.61049 11.7167 4.83437L11.717 3.81756C11.3593 3.82496 10.9594 3.7766 10.6121 3.81756C10.4401 4.54888 10.0424 4.86017 9.36824 5.04017L9.36887 6.22149C9.3691 7.43496 9.2541 7.57122 8.10934 7.56773V16.9628C8.39598 16.9734 8.74692 16.963 9.03934 16.963L10.8154 16.9628C11.1115 16.9627 11.4221 16.9573 11.717 16.9628L11.7171 15.8966C11.716 15.0795 11.7123 14.4733 12.8166 14.5575C13.4341 14.5661 14.5383 14.3434 14.6121 15.2144C14.6289 15.4468 14.6221 15.6949 14.6222 15.9309V18.4647C14.6222 18.6884 14.6432 19.0643 14.5948 19.2651C14.4842 19.5983 14.1447 19.7434 13.8167 19.7458L13.1035 19.7464C11.9049 19.7461 11.7153 19.6648 11.7162 18.4326L11.717 17.573L4.65828 17.5727C4.45047 17.5727 4.07368 17.5887 3.88576 17.573L3.88518 18.9119C3.88735 19.3491 3.67423 19.727 3.1975 19.7407C2.8047 19.7519 2.40941 19.7417 2.01623 19.7464C1.56234 19.7515 1.02022 19.6597 1.00586 19.0862L1.0044 15.6384C1.00372 15.4994 0.991614 15.3091 1.01074 15.1748C1.11668 14.4311 2.06682 14.546 2.61838 14.56C3.75615 14.5887 3.86815 14.6512 3.88627 15.8217C3.89219 16.2036 3.88091 16.5828 3.88576 16.9628C5.08614 16.9805 6.31927 16.9223 7.51356 16.9628L7.51348 8.59642C7.51348 8.26642 7.50356 7.89286 7.51356 7.56773L7.46489 7.56804C6.35286 7.5727 6.27208 7.30819 6.27224 6.27751L6.27153 5.04017C5.58593 5.00885 5.14839 4.43843 5.00224 3.81756H3.88576ZM1.67036 1.63106C1.59537 1.64494 1.59349 1.71856 1.59368 1.78772L1.59446 4.99645C1.59407 5.37419 1.50179 5.53974 1.93247 5.53088C2.26555 5.52402 2.91666 5.57339 3.21359 5.52733C3.32082 5.46223 3.27711 5.08001 3.27611 4.95601L3.27527 2.51753C3.27544 2.23173 3.28663 1.91062 3.27537 1.63106H1.67036ZM12.3618 1.63106C12.3134 1.69132 12.3304 2.38855 12.3304 2.50512L12.3307 4.91096C12.3307 5.0641 12.3236 5.30373 12.3305 5.44942C12.5432 5.59286 13.9017 5.53391 13.9495 5.50246L14.0226 5.44942L14.0235 2.21843C14.0239 2.08347 14.0878 1.6351 13.9046 1.63431C13.4106 1.6322 12.844 1.60289 12.3618 1.63106ZM6.4638 2.56861C5.19725 2.81676 5.38485 4.29137 6.28278 4.43243C6.93755 4.53654 6.86973 4.37755 6.86911 5.14529L6.86786 6.24164C6.86669 7.02415 6.74575 6.944 7.46778 6.94306L8.30848 6.94247C8.44223 6.94235 8.6084 6.93719 8.73887 6.94287C8.77387 6.80338 8.76793 6.69574 8.76801 6.55305L8.76746 5.29286C8.76746 5.08549 8.75918 4.86096 8.77832 4.65489C8.80434 4.37362 9.18192 4.47283 9.37918 4.41297C10.3955 4.10459 10.1568 2.6257 9.08723 2.56866C8.21364 2.56888 7.33739 2.56629 6.4638 2.56861ZM2.55664 15.1467C1.46736 15.142 1.59493 15.0048 1.59448 16.0522L1.59459 18.2523C1.59469 18.4592 1.57476 18.9676 1.63321 19.1405H2.32236C2.59868 19.141 3.00559 19.1512 3.27537 19.1144C3.283 18.9554 3.27544 18.7593 3.27539 18.5954L3.27546 16.1182C3.27544 15.9741 3.28965 15.2973 3.24834 15.2143C3.12455 15.1104 2.71383 15.1457 2.55664 15.1467ZM12.5493 15.1467H12.4189L12.3618 15.225C12.3081 15.3704 12.3303 15.964 12.3304 16.1552L12.3305 18.413C12.3305 18.6009 12.3179 18.9439 12.3609 19.1152C12.3935 19.1383 13.5976 19.1621 13.8297 19.1405C13.9436 19.1375 14.0165 19.1494 14.0192 19.0061C14.0244 18.732 14.0228 18.458 14.0228 18.1838L14.0234 15.7603C14.0236 15.6532 14.075 15.238 13.9683 15.171C13.89 15.1217 12.7402 15.1465 12.5493 15.1467Z" fill="white" stroke="white"/>
</svg>
