<svg width="28" height="28" viewBox="0 0 28 28" fill="none" xmlns="http://www.w3.org/2000/svg">
<path d="M25.3742 3.5C25.3742 3.26794 25.2821 3.04538 25.118 2.88128C24.9539 2.71719 24.7313 2.625 24.4992 2.625C19.678 2.625 14.731 8.06203 11.9835 11.6627C11.0022 11.3621 9.96418 11.2959 8.95272 11.4694C7.94126 11.6428 6.98456 12.051 6.15948 12.6612C5.3344 13.2715 4.66393 14.0667 4.20192 14.983C3.73991 15.8994 3.49924 16.9113 3.49924 17.9375C3.49924 21.315 1.36205 22.8298 1.26033 22.8998C1.10512 23.0047 0.987628 23.1565 0.92514 23.3331C0.862651 23.5096 0.858462 23.7016 0.913188 23.8807C0.967914 24.0598 1.07867 24.2166 1.22916 24.3281C1.37966 24.4396 1.56195 24.4998 1.74924 24.5H10.0617C11.088 24.5 12.0999 24.2593 13.0162 23.7973C13.9326 23.3353 14.7278 22.6648 15.338 21.8398C15.9482 21.0147 16.3564 20.058 16.5299 19.0465C16.7033 18.0351 16.6371 16.997 16.3366 16.0158C19.9383 13.2683 25.3742 8.32125 25.3742 3.5ZM10.0617 22.75H3.7869C4.52518 21.7011 5.24924 20.1163 5.24924 17.9375C5.24924 16.9857 5.53149 16.0552 6.06029 15.2638C6.5891 14.4724 7.34071 13.8556 8.22008 13.4913C9.09944 13.1271 10.0671 13.0318 11.0006 13.2175C11.9341 13.4032 12.7917 13.8615 13.4647 14.5345C14.1377 15.2076 14.5961 16.0651 14.7818 16.9986C14.9675 17.9322 14.8722 18.8998 14.5079 19.7792C14.1437 20.6585 13.5268 21.4101 12.7354 21.9389C11.944 22.4678 11.0136 22.75 10.0617 22.75ZM13.6077 12.4195C13.9825 11.9339 14.3503 11.4764 14.7113 11.0469C15.5947 11.6437 16.3555 12.4045 16.9524 13.288C16.5222 13.6482 16.0646 14.016 15.5797 14.3916C15.0698 13.6017 14.3976 12.9294 13.6077 12.4195ZM18.278 12.1264C17.6174 11.1943 16.8038 10.3807 15.8717 9.72016C19.3477 5.94344 21.9694 4.79828 23.5171 4.48C23.2053 6.02875 22.0547 8.65047 18.278 12.1264Z" fill="#343330"/>
</svg>
