<svg width="22" height="28" viewBox="0 0 22 28" fill="none" xmlns="http://www.w3.org/2000/svg">
<path d="M5.51271 4.81177L5.51548 4.83731C5.52363 4.9191 5.51475 5.13946 5.51428 5.23223L5.51231 6.04307C5.5121 6.76378 5.7033 8.04673 4.57278 8.05737C4.06358 8.06216 3.53567 8.03906 3.01915 8.04091C1.91682 8.05282 1.4772 7.86103 1.47891 6.65868L1.47988 2.39276C1.47815 1.52726 1.47501 0.972386 2.51564 0.889127L3.85337 0.888794C5.26615 0.887874 5.51434 0.946203 5.51352 2.53124L5.51271 3.942C5.97944 3.97618 6.5963 3.94751 7.07579 3.942C7.50169 2.42478 8.49701 2.21354 9.85139 2.21467L12.3258 2.21419C13.7573 2.21373 14.4681 2.58588 14.9297 3.942C15.4321 3.95312 15.9696 3.93992 16.4764 3.942L16.4761 2.69548C16.4761 2.01435 16.3931 1.09884 17.2949 0.92551C17.7927 0.829856 19.0401 0.877779 19.5674 0.890148C20.6033 0.938535 20.5529 1.89882 20.5464 2.62469L20.5434 6.20645C20.544 7.71872 20.5437 8.04167 18.9116 8.03993L17.7918 8.04052C16.4784 8.04098 16.4763 7.32187 16.476 6.2353L16.4764 4.81177C15.9757 4.82213 15.4158 4.75443 14.9297 4.81177C14.6888 5.83562 14.132 6.27143 13.1882 6.52343L13.1891 8.17728C13.1894 9.87613 13.0284 10.0669 11.4257 10.062V23.2151C11.827 23.2299 12.3183 23.2153 12.7277 23.2153L15.2141 23.2151C15.6288 23.215 16.0637 23.2073 16.4764 23.2151L16.4767 21.7225C16.475 20.5785 16.4699 19.7298 18.0159 19.8477C18.8804 19.8597 20.4263 19.548 20.5296 20.7674C20.5531 21.0927 20.5437 21.4401 20.5438 21.7705V25.3177C20.5438 25.631 20.5731 26.1572 20.5054 26.4384C20.3506 26.9048 19.8753 27.108 19.4161 27.1113L18.4176 27.1121C16.7395 27.1117 16.4741 26.9978 16.4753 25.2729L16.4764 24.0693L6.59425 24.069C6.30331 24.069 5.7758 24.0914 5.51271 24.0693L5.51191 25.9439C5.51495 26.556 5.21657 27.085 4.54916 27.1042C3.99923 27.1199 3.44583 27.1056 2.89538 27.1121C2.25993 27.1194 1.50096 26.9907 1.48087 26.1878L1.47882 21.361C1.47787 21.1664 1.46092 20.8999 1.48769 20.7119C1.636 19.6707 2.96621 19.8316 3.73839 19.8512C5.33126 19.8914 5.48806 19.9789 5.51344 21.6176C5.52172 22.1522 5.50593 22.6831 5.51271 23.2151C7.19326 23.2398 8.91963 23.1585 10.5916 23.2151L10.5915 11.5022C10.5915 11.0402 10.5776 10.5172 10.5916 10.062L10.5235 10.0624C8.96666 10.069 8.85357 9.69866 8.85379 8.25571L8.8528 6.52343C7.89296 6.47958 7.2804 5.68098 7.07579 4.81177H5.51271ZM2.41116 1.75068C2.30617 1.7701 2.30354 1.87317 2.3038 1.97L2.3049 6.46221C2.30435 6.99105 2.17517 7.22283 2.77812 7.21041C3.24442 7.20081 4.15598 7.26994 4.57169 7.20545C4.7218 7.11431 4.66061 6.5792 4.65921 6.4056L4.65804 2.99173C4.65827 2.59162 4.67394 2.14205 4.65818 1.75068H2.41116ZM17.3792 1.75068C17.3114 1.83504 17.3353 2.81115 17.3353 2.97436L17.3356 6.34252C17.3357 6.55692 17.3256 6.89241 17.3354 7.09637C17.6332 7.29719 19.535 7.21466 19.6019 7.17063L19.7043 7.09637L19.7055 2.57299C19.7061 2.38404 19.7956 1.75632 19.5392 1.75523C18.8475 1.75227 18.0543 1.71124 17.3792 1.75068ZM9.12197 3.06324C7.3488 3.41066 7.61145 5.47511 8.86855 5.67258C9.78522 5.81835 9.69028 5.59576 9.68941 6.67059L9.68766 8.20548C9.68602 9.30099 9.51671 9.18878 10.5275 9.18747L11.7045 9.18664C11.8918 9.18648 12.1244 9.17925 12.3071 9.18721C12.3561 8.99192 12.3478 8.84122 12.3479 8.64145L12.3471 6.87719C12.3471 6.58687 12.3355 6.27254 12.3623 5.98403C12.3987 5.59026 12.9273 5.72915 13.2035 5.64535C14.6264 5.21361 14.2922 3.14317 12.7948 3.06331C11.5717 3.06362 10.345 3.05999 9.12197 3.06324ZM3.65195 20.6726C2.12696 20.666 2.30556 20.474 2.30493 21.9402L2.30508 25.0205C2.30522 25.3101 2.27732 26.0219 2.35916 26.2638H3.32396C3.71081 26.2646 4.28049 26.2788 4.65818 26.2274C4.66886 26.0047 4.65827 25.7302 4.6582 25.5007L4.6583 22.0327C4.65828 21.8309 4.67816 20.8834 4.62034 20.7672C4.44703 20.6217 3.87202 20.6712 3.65195 20.6726ZM17.6417 20.6726H17.4591L17.3792 20.7822C17.304 20.9857 17.3351 21.8168 17.3353 22.0845L17.3354 25.2454C17.3354 25.5085 17.3178 25.9886 17.3779 26.2285C17.4236 26.2608 19.1093 26.2941 19.4343 26.2638C19.5937 26.2597 19.6958 26.2764 19.6996 26.0757C19.7068 25.692 19.7045 25.3083 19.7045 24.9245L19.7054 21.5316C19.7057 21.3817 19.7776 20.8004 19.6283 20.7066C19.5186 20.6376 17.9089 20.6723 17.6417 20.6726Z" fill="#343330" stroke="#343330"/>
</svg>
